<?xml version="1.0" encoding="UTF-8"?><svg id="a" xmlns="http://www.w3.org/2000/svg" viewBox="0 0 291.98 97.95"><defs><style>.h{fill:#fff;}.i{fill:#5ae500;}</style></defs><g id="b"><g><path d="M131.18,45.76l23.11-31.69h21.2l-24.06,33.28,27.98,36.68h-21.62l-26.61-34.87v34.87h-18.23V14.07h18.23v31.69Z"/><path d="M193.09,1.46c1.55,0,3,.28,4.35,.85,1.34,.57,2.53,1.33,3.55,2.28,1.02,.95,1.84,2.08,2.44,3.39,.6,1.31,.9,2.74,.9,4.29s-.3,2.88-.9,4.19c-.6,1.31-1.42,2.44-2.44,3.39-1.03,.95-2.21,1.71-3.55,2.28-1.34,.57-2.79,.85-4.35,.85s-3-.28-4.35-.85c-1.34-.56-2.53-1.33-3.55-2.28-1.03-.95-1.82-2.08-2.38-3.39-.57-1.31-.85-2.7-.85-4.19,0-3.11,1.08-5.69,3.23-7.74,2.16-2.05,4.79-3.07,7.9-3.07Zm9.22,82.57h-18.23V31.03h18.23v53Z"/><path d="M239.94,84.03h-5.83l-27.14-53h19.29l10.71,23.85,10.81-23.85h19.29l-27.14,53Z"/><path d="M280.75,1.46c1.55,0,3,.28,4.35,.85,1.34,.57,2.53,1.33,3.55,2.28,1.02,.95,1.84,2.08,2.44,3.39,.6,1.31,.9,2.74,.9,4.29s-.3,2.88-.9,4.19c-.6,1.31-1.42,2.44-2.44,3.39-1.03,.95-2.21,1.71-3.55,2.28-1.34,.57-2.79,.85-4.35,.85s-3-.28-4.35-.85c-1.34-.56-2.53-1.33-3.55-2.28-1.03-.95-1.82-2.08-2.38-3.39-.57-1.31-.85-2.7-.85-4.19,0-3.11,1.08-5.69,3.23-7.74,2.16-2.05,4.79-3.07,7.9-3.07Zm9.22,82.57h-18.23V31.03h18.23v53Z"/></g></g><g id="c"><g id="d"><path d="M79.71,68.68v-5.28c-9.28,11.54-23.5,18.95-39.46,18.95h0c-16.42,0-31-7.83-40.25-19.94v7.95c5.39,17.15,21.33,27.59,40.25,27.59h0c18.19,0,33.53-9.5,39.48-25.62l-.02-3.64Z"/></g><g id="e"><path d="M40.25,60.46C22.08,60.46,6.52,52.26,0,40.6v13.5c9.17,12.97,24.27,20.69,41.37,20.69h0c15.33,0,29.06-9.08,38.34-19.84v-13.03c-6.93,10.94-21.99,18.53-39.46,18.53Z"/></g><g id="f"><path class="i" d="M40.25,52.19c20.68,0,37.46-11.58,37.62-25.9,0-.07,0-.13,0-.2,0-1.35-.15-2.68-.43-3.97-.1-.43-.21-.86-.33-1.29-.5-1.7-1.24-3.34-2.19-4.9-.24-.39-.49-.78-.75-1.16-.53-.76-1.11-1.5-1.74-2.22-.63-.72-1.31-1.41-2.03-2.08-1.08-1-2.27-1.95-3.55-2.84-1.7-1.18-3.57-2.25-5.57-3.19-1-.47-2.04-.91-3.1-1.31-1.6-.6-3.27-1.13-5-1.57-1.15-.29-2.33-.55-3.53-.76-1.8-.32-3.66-.55-5.56-.69-1.26-.09-2.55-.13-3.85-.13-1.95,0-3.86,.1-5.73,.3-.62,.07-1.24,.14-1.85,.23-2.45,.35-4.81,.86-7.06,1.52-.56,.17-1.12,.34-1.67,.52-1.1,.37-2.16,.77-3.2,1.2-.52,.22-1.03,.44-1.53,.68-1,.47-1.97,.97-2.9,1.5-1.86,1.06-3.57,2.25-5.1,3.54-.77,.64-1.49,1.31-2.17,2.01-.34,.35-.66,.7-.98,1.06-.63,.72-1.21,1.46-1.74,2.22-.26,.38-.52,.77-.75,1.16-.95,1.56-1.69,3.2-2.19,4.9-.13,.42-.24,.85-.33,1.29-.29,1.3-.43,2.62-.43,3.97,0,.07,0,.13,0,.2,.16,14.32,16.93,25.9,37.62,25.9Z"/></g><g id="g"><ellipse class="h" cx="40.25" cy="26.09" rx="17.57" ry="10.7"/></g></g></svg>