<?xml version="1.0" encoding="UTF-8"?><svg xmlns="http://www.w3.org/2000/svg" viewBox="0 0 988.69 224.5"><defs><style>.i{fill:#fff;}.j{fill:#5ae500;}</style></defs><g id="a"><rect class="i" width="988.69" height="224.5"/></g><g id="b"><g id="c"><g><path d="M460.89,112.09l31.3-42.94h28.72l-32.6,45.09,37.91,49.68h-29.29l-36.04-47.24v47.24h-24.7V69.16h24.7v42.94Z"/><path d="M544.75,52.07c2.1,0,4.07,.38,5.89,1.15,1.82,.77,3.42,1.8,4.81,3.09,1.39,1.29,2.49,2.82,3.3,4.59,.81,1.77,1.22,3.71,1.22,5.82s-.41,3.9-1.22,5.67c-.81,1.77-1.92,3.3-3.3,4.6-1.39,1.29-2.99,2.32-4.81,3.09-1.82,.77-3.78,1.15-5.89,1.15s-4.07-.38-5.89-1.15c-1.82-.77-3.42-1.8-4.81-3.09-1.39-1.29-2.47-2.82-3.23-4.6-.77-1.77-1.15-3.66-1.15-5.67,0-4.21,1.46-7.7,4.38-10.48,2.92-2.78,6.49-4.16,10.7-4.16Zm12.49,111.86h-24.7V92.13h24.7v71.8Z"/><path d="M608.22,163.93h-7.9l-36.76-71.8h26.13l14.5,32.31,14.65-32.31h26.13l-36.76,71.8Z"/><path d="M663.5,52.07c2.1,0,4.07,.38,5.89,1.15,1.82,.77,3.42,1.8,4.81,3.09,1.39,1.29,2.49,2.82,3.3,4.59,.81,1.77,1.22,3.71,1.22,5.82s-.41,3.9-1.22,5.67c-.81,1.77-1.92,3.3-3.3,4.6-1.39,1.29-2.99,2.32-4.81,3.09-1.82,.77-3.78,1.15-5.89,1.15s-4.07-.38-5.89-1.15c-1.82-.77-3.42-1.8-4.81-3.09-1.39-1.29-2.47-2.82-3.23-4.6-.77-1.77-1.15-3.66-1.15-5.67,0-4.21,1.46-7.7,4.38-10.48,2.92-2.78,6.49-4.16,10.7-4.16Zm12.49,111.86h-24.7V92.13h24.7v71.8Z"/></g></g><g id="d"><g id="e"><path d="M391.16,143.14v-7.15c-12.57,15.64-31.83,25.67-53.46,25.67h0c-22.24,0-42-10.6-54.53-27.01v10.76c7.31,23.23,28.9,37.37,54.53,37.37h0c24.65,0,45.42-12.87,53.48-34.71l-.02-4.94Z"/></g><g id="f"><path d="M337.71,132c-24.62,0-45.69-11.11-54.53-26.9v18.29c12.42,17.58,32.88,28.03,56.04,28.03h0c20.77,0,39.36-12.3,51.94-26.88v-17.65c-9.39,14.82-29.79,25.1-53.46,25.1Z"/></g><g id="g"><path class="j" d="M337.71,120.8c28.02,0,50.75-15.68,50.96-35.08,0-.09,0-.18,0-.27,0-1.83-.2-3.63-.59-5.38-.13-.59-.28-1.17-.45-1.74-.68-2.3-1.68-4.52-2.97-6.64-.32-.53-.66-1.05-1.02-1.57-.72-1.03-1.5-2.03-2.35-3-.85-.97-1.77-1.91-2.75-2.82-1.47-1.36-3.07-2.65-4.8-3.85-2.31-1.6-4.83-3.05-7.54-4.32-1.36-.64-2.76-1.23-4.2-1.77-2.17-.82-4.43-1.53-6.77-2.12-1.56-.4-3.16-.74-4.79-1.03-2.44-.44-4.96-.75-7.53-.93-1.71-.12-3.45-.18-5.21-.18-2.64,0-5.23,.14-7.76,.41-.84,.09-1.68,.19-2.51,.31-3.32,.47-6.52,1.17-9.57,2.06-.76,.22-1.51,.46-2.26,.71-1.49,.5-2.93,1.04-4.33,1.63-.7,.3-1.39,.6-2.07,.92-1.36,.64-2.67,1.31-3.92,2.04-2.52,1.44-4.83,3.05-6.91,4.79-1.04,.87-2.02,1.78-2.93,2.72-.46,.47-.9,.95-1.33,1.43-.85,.97-1.64,1.97-2.35,3-.36,.52-.7,1.04-1.02,1.57-1.29,2.11-2.29,4.33-2.97,6.64-.17,.58-.32,1.16-.45,1.74-.39,1.76-.59,3.55-.59,5.38,0,.09,0,.18,0,.27,.21,19.4,22.94,35.08,50.96,35.08Z"/></g><g id="h"><ellipse class="i" cx="337.71" cy="85.45" rx="23.81" ry="14.5"/></g></g></g></svg>